<?xml version="1.0" encoding="UTF-8"?>
<svg xmlns="http://www.w3.org/2000/svg" baseProfile="tiny" version="1.2" viewBox="0 0 113.39 113.39">
  <!-- Generator: Adobe Illustrator 28.7.4, SVG Export Plug-In . SVG Version: 1.2.0 Build 166)  -->
  <g>
    <g id="_レイヤー_1" data-name="レイヤー_1">
      <path d="M51,78.08c-5.25.46-10.46,1.31-15.59,2.55v5.87c5.12-1.32,10.33-2.23,15.59-2.72v-5.7Z" fill="#040000"/>
      <path d="M62.36,78.08v5.7c5.28.48,10.51,1.39,15.64,2.72v-5.86c-5.14-1.24-10.37-2.1-15.64-2.56Z" fill="#040000"/>
      <path d="M93.37,23.46h14.37v-9.35H5.7v9.35h14.3l-2.34,63.78c-2.17,1.14-4.28,2.4-6.32,3.76v-6.12h-5.67v19.94h5.67v-6.93c1.95-1.45,3.97-2.78,6.07-4l-.4,11h15.6v-53.36h48.18v53.29h15.59l-.4-11c2.1,1.22,4.12,2.55,6.07,4v6.93h5.67v-19.87h-5.72v6.12c-2.04-1.35-4.15-2.59-6.32-3.72l-2.31-63.82ZM80.79,42.17h-48.19v-18.71h48.19v18.71Z" fill="#040000"/>
      <path d="M35.44,93.54s-.07,11.19,0,11.27h42.56v-11.27c-5.43-1.41-13.86-3.13-21.26-3.13s-15.87,1.72-21.3,3.13Z" fill="#040000"/>
    </g>
  </g>
</svg>