<?xml version="1.0" encoding="UTF-8"?>
<svg id="_レイヤー_2" data-name="レイヤー 2" xmlns="http://www.w3.org/2000/svg" viewBox="0 0 113.39 113.39">
  <defs>
    <style>
      .cls-1 {
        stroke-width: 0px;
      }
    </style>
  </defs>
  <g id="waku">
    <g>
      <path class="cls-1" d="m102.95,45.33l3.21-5.34-.1-.12c-3.2-3.63-8.15-6.16-13.92-7.14-5.77-.98-11.73-.29-16.78,1.95.57-5.49-.61-11.38-3.33-16.58-2.72-5.19-6.66-9.11-11.09-11.03l-.15-.06-4.09,4.71-4.09-4.71-.15.06c-4.44,1.92-8.38,5.84-11.09,11.03-2.72,5.19-3.9,11.07-3.33,16.56-5.05-2.24-11.01-2.93-16.79-1.95-5.77.98-10.72,3.52-13.92,7.14l-.1.12,3.21,5.34-5.74,2.43.02.16c.46,4.82,2.97,9.77,7.06,13.96,4.1,4.19,9.32,7.13,14.72,8.29-3.69,4.11-6.19,9.57-7.05,15.37-.85,5.79.03,11.28,2.49,15.45l.08.14,6.07-1.41.54,6.21.15.03c1.32.29,2.7.44,4.11.44,3.66,0,7.56-.97,11.35-2.84,5.25-2.6,9.66-6.66,12.43-11.44,2.77,4.78,7.19,8.85,12.44,11.45,3.78,1.88,7.69,2.84,11.35,2.84,1.42,0,2.8-.15,4.11-.44l.15-.03.54-6.21,6.07,1.41.08-.14c2.46-4.17,3.34-9.65,2.49-15.45-.85-5.8-3.35-11.25-7.04-15.36,5.4-1.16,10.63-4.1,14.73-8.29,4.1-4.19,6.6-9.14,7.06-13.96v-.16s-5.73-2.43-5.73-2.43Zm-47.78.28c1.18-.92,2.89-.7,3.8.48.92,1.18.7,2.89-.48,3.81-1.18.92-2.89.7-3.8-.48-.92-1.18-.7-2.89.48-3.81Zm-11.3,10.62c-.51-1.41.22-2.96,1.63-3.47,1.41-.51,2.96.22,3.47,1.63.51,1.41-.22,2.96-1.63,3.47-1.41.51-2.96-.22-3.47-1.63Zm6.61,14.02c-1.5.05-2.75-1.13-2.8-2.63-.05-1.5,1.13-2.75,2.63-2.8,1.5-.05,2.75,1.13,2.8,2.63.05,1.5-1.13,2.75-2.63,2.8Zm8.52-8.81c-1.55,1.2-3.77.92-4.97-.63s-.92-3.77.63-4.97c1.55-1.2,3.77-.92,4.97.63,1.2,1.55.92,3.77-.63,4.97Zm6.86,6.85c-.42,1.44-1.92,2.27-3.36,1.85-1.44-.42-2.27-1.92-1.85-3.36.42-1.44,1.92-2.27,3.36-1.85,1.44.42,2.27,1.92,1.85,3.36Zm3.61-11.47c-.84,1.24-2.53,1.56-3.77.72-1.24-.84-1.56-2.53-.72-3.77s2.53-1.56,3.77-.72c1.24.84,1.56,2.53.72,3.77Z"/>
      <text/>
      <text/>
    </g>
  </g>
</svg>