<?xml version="1.0" encoding="UTF-8"?>
<svg xmlns="http://www.w3.org/2000/svg" baseProfile="tiny" version="1.2" viewBox="0 0 113.39 113.39">
  <!-- Generator: Adobe Illustrator 28.7.4, SVG Export Plug-In . SVG Version: 1.2.0 Build 166)  -->
  <g>
    <g id="_レイヤー_2">
      <g>
        <path d="M59.5,70.82h-11.88l-7.82,6.84c2.79,7.35,13.08,8.09,16.89,1.22,3.82,6.88,14.12,6.12,16.9-1.23l-7.8-6.82h-6.29,0Z"/>
        <rect x="14.18" y="51.04" width="5.67" height="14.2"/>
        <rect x="28.37" y="51.05" width="5.67" height="14.2"/>
        <path d="M24.1,35.81l14.23,12.38,3.72-4.28-1.61-1.4h0c-3.07-2.67-11.28-9.81-14.23-12.38v-7.44h-4.25v7.45l-15.83,13.77,3.72,4.28,14.23-12.38h.01Z"/>
        <path d="M72.97,42.51l-1.61,1.4,3.72,4.28,14.23-12.38,14.23,12.38,3.72-4.28-15.83-13.77v-7.45h-4.25v7.44c-3.28,2.85-10.88,9.47-14.23,12.38h.02Z"/>
        <polygon points="68.63 42.51 81.67 31.17 31.74 31.17 44.78 42.51 68.63 42.51"/>
        <rect x="52.44" y="48.22" width="8.5" height="8.5"/>
        <rect x="93.56" y="51.05" width="5.67" height="14.16"/>
        <rect x="79.38" y="51.05" width="5.67" height="14.16"/>
        <path d="M107.73,75.09c-.7-1.05-2.12-3.17-2.82-4.23h-.01v-.02h-26.16l-6.54-5.72c-2.07-1.81-4.72-2.8-7.46-2.8h-16.05c-2.75,0-5.4,1-7.46,2.8l-6.54,5.72H8.51v.02h-.01c-1.58,2.37-4.08,6.11-5.68,8.5h8.52v11.34h25.51v-14.24c1.49-1.3,6.52-5.7,8.1-7.08,1.03-.9,2.36-1.4,3.73-1.4h16.05c1.37,0,2.7.5,3.74,1.4l5.75,5.03,2.34,2.05v14.24h25.51v-11.34h8.52l-2.86-4.28h0Z"/>
      </g>
    </g>
  </g>
</svg>