<?xml version="1.0" encoding="UTF-8"?>
<svg xmlns="http://www.w3.org/2000/svg" baseProfile="tiny" version="1.2" viewBox="0 0 113.39 113.39">
  <!-- Generator: Adobe Illustrator 28.7.4, SVG Export Plug-In . SVG Version: 1.2.0 Build 166)  -->
  <g>
    <g id="_レイヤー_1" data-name="レイヤー_1">
      <path d="M105,88.68c-4.22-2.69-9.54-2.94-14-.67-3.87,2.6-7.33,4.5-11.74,1.51-4.09-3.21-9.61-3.91-14.37-1.82-2.58,1.19-4.62,3.47-7.71,3.31-1.75,0-3.46-.57-4.86-1.62-4.97-3.8-11.87-3.84-16.88-.09-2.63,1.98-6.18,2.24-9.06.65-1.24-.87-2.54-1.67-3.88-2.38-4.66-1.93-9.98-1.24-14,1.8l3.61,4.37c2.67-1.98,6.26-2.15,9.11-.45,1.28.92,2.64,1.72,4.06,2.41,3.24,1.23,6.82,1.26,10.08.07,1.45-.63,2.81-1.44,4.07-2.39,2.88-1.8,6.58-1.65,9.3.38,4.01,3.07,9.36,3.75,14,1.77,2.12-.91,3.67-2.64,6-3.15,2.35-.57,4.83-.07,6.77,1.36,4.03,3.11,9.44,3.78,14.11,1.76,2.28-1,3.9-2.89,6.45-3.27,2.21-.37,4.47.17,6.26,1.51l3.68-4.38c-.34-.24-.65-.47-1-.68Z"/>
      <path d="M18.57,83.75c1.77.14,3.5.57,5.13,1.25,1.44.76,2.83,1.61,4.17,2.54,2,1.01,4.41.74,6.13-.69,0-10.7,0-33.26-.07-43.84,12-7.46,33.08-7.73,45.4-.64v43.74c2.67,2.09,5.36,3,8.34.66,3.36-2.36,7.45-3.42,11.53-3V8.5c-4.95.4-17.89,4.51-19.4,13.1h-46.22c-1.51-8.6-14.5-12.71-19.41-13.1v75.38c1.45-.24,2.93-.29,4.4-.13ZM71.22,25.85h8.12v4.77h-8.12v-4.77ZM58.82,25.85h8.18v4.77h-8.18v-4.77ZM46.42,25.85h8.15v4.77h-8.15v-4.77ZM34,25.85h8.21v4.77h-8.28l.07-4.77Z"/>
    </g>
  </g>
</svg>