<?xml version="1.0" encoding="UTF-8"?>
<svg xmlns="http://www.w3.org/2000/svg" baseProfile="tiny" version="1.2" viewBox="0 0 113.39 113.39">
  <!-- Generator: Adobe Illustrator 28.7.4, SVG Export Plug-In . SVG Version: 1.2.0 Build 166)  -->
  <g>
    <g id="_レイヤー_1" data-name="レイヤー_1">
      <path d="M62.07,51c4.5-6.59,7.03-14.32,7.32-22.3L27.45,5.14c-4,8.5.31,19.78,8.75,25.87-4.77,5.79-1.52,15.17,5.71,16.84,6.93,2,14.13-4.23,13.25-11.33.96-.09,1.9-.25,2.84-.47,1.4,13.44-15.58,20.38-24,9.83v16.42h11.35v11.34h-11.35v10.77l4,11.91-3.8,11.33h27.13l3.87-11.33-4.82-14.18h10.47v-31.14h-8.78Z"/>
      <polygon points="85.97 42.82 73.68 50.13 73.68 63.08 90.15 48.55 85.97 42.82"/>
      <path d="M69.42,25.43c-.08-2.98-.48-5.94-1.19-8.83l-7,1c.08,1.09.1,2.18.1,3.27l8.09,4.56Z"/>
    </g>
  </g>
</svg>